<svg width="100" height="100" viewBox="0 0 100 100" fill="none" xmlns="http://www.w3.org/2000/svg">
<path d="M49.684 50.928C48.1 50.928 46.696 50.688 45.472 50.208C44.26 49.728 43.246 49.056 42.43 48.192C41.626 47.328 41.02 46.416 40.612 45.456C40.204 44.496 40 44.016 40 44.016L44.23 42.306C44.23 42.306 44.374 42.636 44.662 43.296C44.95 43.956 45.334 44.556 45.814 45.096C46.306 45.636 46.894 46.056 47.578 46.356C48.274 46.644 49.054 46.788 49.918 46.788C51.214 46.788 52.264 46.464 53.068 45.816C53.872 45.168 54.274 44.304 54.274 43.224C54.274 42.264 53.836 41.46 52.96 40.812C52.084 40.164 50.566 39.492 48.406 38.796C45.754 37.944 43.846 36.912 42.682 35.7C41.53 34.476 40.954 32.976 40.954 31.2C40.954 29.136 41.764 27.42 43.384 26.052C45.016 24.684 47.122 24 49.702 24C51.082 24 52.306 24.192 53.374 24.576C54.454 24.96 55.384 25.518 56.164 26.25C56.944 26.97 57.514 27.69 57.874 28.41C58.234 29.13 58.414 29.49 58.414 29.49L54.292 31.182C54.292 31.182 54.184 30.978 53.968 30.57C53.752 30.15 53.428 29.742 52.996 29.346C52.576 28.938 52.078 28.632 51.502 28.428C50.938 28.212 50.296 28.104 49.576 28.104C48.436 28.104 47.506 28.368 46.786 28.896C46.078 29.412 45.724 30.102 45.724 30.966C45.724 31.734 46.048 32.4 46.696 32.964C47.344 33.528 48.946 34.218 51.502 35.034C54.118 35.838 56.026 36.912 57.226 38.256C58.438 39.588 59.044 41.196 59.044 43.08C59.044 45.468 58.168 47.376 56.416 48.804C54.676 50.22 52.432 50.928 49.684 50.928Z" fill="white"/>
<path d="M14 38.352H25V41.352C25 43.0088 23.6569 44.352 22 44.352H17C15.3431 44.352 14 43.0088 14 41.352V38.352Z" fill="white"/>
<path d="M14 31.852C14 31.0236 14.6716 30.352 15.5 30.352V30.352C16.3284 30.352 17 31.0236 17 31.852V39.352H14V31.852Z" fill="white"/>
<path d="M18 31.852C18 31.0236 18.6716 30.352 19.5 30.352V30.352C20.3284 30.352 21 31.0236 21 31.852V39.352H18V31.852Z" fill="white"/>
<path d="M22 31.852C22 31.0236 22.6716 30.352 23.5 30.352V30.352C24.3284 30.352 25 31.0236 25 31.852V39.352H22V31.852Z" fill="white"/>
<path d="M28 31.0727C30.9106 31.4483 33.3282 32.5792 35.252 34.4741C37.6519 36.826 38.8515 39.9279 38.8516 43.7797C38.8516 47.6797 37.652 50.8122 35.252 53.1762C32.852 55.5281 29.6839 56.7035 25.748 56.7036H17V40.352H21.8779V52.312H25.5322C28.1121 52.3359 30.1524 51.598 31.6523 50.0981C33.1522 48.5982 33.9023 46.5101 33.9023 43.8344C33.9023 41.1825 33.1522 39.118 31.6523 37.642C30.6738 36.6714 29.4561 36.021 28 35.6889V31.0727Z" fill="white"/>
<path d="M73.392 57.928C69.6 57.892 66.42 56.59 63.852 54.022C61.284 51.442 60 48.244 60 44.428C60 40.576 61.284 37.378 63.852 34.834C66.432 32.278 69.624 31 73.428 31C74.688 31 75.876 31.138 76.992 31.414C78.108 31.678 79.116 32.056 80.016 32.548C80.916 33.04 81.66 33.568 82.248 34.132C82.836 34.696 83.13 34.978 83.13 34.978L79.926 38.326C79.926 38.326 79.704 38.116 79.26 37.696C78.828 37.264 78.324 36.892 77.748 36.58C77.172 36.256 76.524 36.004 75.804 35.824C75.096 35.644 74.334 35.554 73.518 35.554C71.046 35.554 68.976 36.376 67.308 38.02C65.652 39.664 64.824 41.824 64.824 44.5C64.824 47.152 65.658 49.318 67.326 50.998C68.994 52.666 71.07 53.5 73.554 53.5C75.846 53.5 77.694 52.906 79.098 51.718C80.514 50.518 81.324 48.898 81.528 46.858V46.894H73.284V43.006H86.172L86.19 45.238C86.19 49.066 85.008 52.138 82.644 54.454C80.28 56.77 77.196 57.928 73.392 57.928Z" fill="white"/>
<path d="M63.2352 66.5445C64.0933 69.7468 66.1883 72.477 69.0593 74.1346C71.9304 75.7922 75.3423 76.2414 78.5445 75.3834C81.7468 74.5253 84.477 72.4304 86.1346 69.5593C87.7922 66.6882 88.2414 63.2763 87.3834 60.0741L75.3093 63.3093L63.2352 66.5445Z" fill="white"/>
<path d="M67.2 65.6103C67.7834 67.7878 69.208 69.6444 71.1603 70.7716C73.1127 71.8987 75.4328 72.2042 77.6103 71.6207C79.7878 71.0372 81.6444 69.6127 82.7716 67.6603C83.8987 65.708 84.2042 63.3879 83.6207 61.2104L75.4103 63.4103L67.2 65.6103Z" fill="white"/>
<path d="M75.6748 62.5361C76.4835 62.3565 77.2842 62.8661 77.4639 63.6748L78.4639 68.1748C78.6435 68.9835 78.1339 69.7842 77.3252 69.9639C76.5165 70.1435 75.7159 69.6338 75.5362 68.8252L74.5362 64.3252C74.3565 63.5165 74.8662 62.7158 75.6748 62.5361Z" fill="white"/>
<path d="M91.3291 58.4951C87.2172 62.1501 80.9031 64.749 73.7588 66.4463C66.5658 68.155 58.3138 69 50.125 69C41.937 69 33.7442 68.1551 26.6709 66.4443C19.6535 64.747 13.4979 62.1403 9.62109 58.4482L12.3789 55.5518C15.502 58.5262 20.8468 60.9197 27.6104 62.5557C34.3182 64.1781 42.1882 65 50.125 65C58.061 65 65.9968 64.1782 72.835 62.5537C79.7216 60.9176 85.2828 58.5165 88.6709 55.5049L91.3291 58.4951Z" fill="white"/>
<path d="M45.5 61V57C45.5 56.1716 46.1716 55.5 47 55.5C47.8284 55.5 48.5 56.1716 48.5 57V61C48.5 61.8284 47.8284 62.5 47 62.5C46.1716 62.5 45.5 61.8284 45.5 61Z" fill="white"/>
<path d="M51.5 61V57C51.5 56.1716 52.1716 55.5 53 55.5C53.8284 55.5 54.5 56.1716 54.5 57V61C54.5 61.8284 53.8284 62.5 53 62.5C52.1716 62.5 51.5 61.8284 51.5 61Z" fill="white"/>
</svg>
