<svg width="95" height="60" viewBox="0 0 95 60" fill="none" xmlns="http://www.w3.org/2000/svg">
<path d="M46.3962 31.1849C44.5618 31.1849 42.9358 30.907 41.5183 30.3511C40.1147 29.7952 38.9404 29.017 37.9954 28.0164C37.0643 27.0158 36.3625 25.9597 35.89 24.8479C35.4175 23.7361 35.1813 23.1802 35.1813 23.1802L40.08 21.1999C40.08 21.1999 40.2467 21.5821 40.5803 22.3464C40.9138 23.1108 41.3585 23.8056 41.9144 24.431C42.4842 25.0563 43.1651 25.5427 43.9572 25.8902C44.7633 26.2237 45.6666 26.3905 46.6672 26.3905C48.168 26.3905 49.384 26.0152 50.3151 25.2648C51.2462 24.5144 51.7118 23.5138 51.7118 22.263C51.7118 21.1513 51.2045 20.2202 50.1901 19.4697C49.1756 18.7193 47.4176 17.9411 44.9161 17.135C41.8449 16.1483 39.6353 14.9532 38.2873 13.5496C36.9531 12.1321 36.2861 10.395 36.2861 8.33822C36.2861 5.94793 37.2241 3.96065 39.1002 2.37639C40.9902 0.792132 43.4292 0 46.417 0C48.0152 0 49.4327 0.222353 50.6695 0.667059C51.9202 1.11176 52.9972 1.75797 53.9006 2.60569C54.8039 3.43952 55.464 4.27334 55.8809 5.10716C56.2978 5.94098 56.5062 6.35789 56.5062 6.35789L51.7326 8.31737C51.7326 8.31737 51.6075 8.08112 51.3574 7.60862C51.1073 7.12223 50.732 6.64973 50.2317 6.19113C49.7453 5.71863 49.1686 5.36425 48.5016 5.12801C47.8484 4.87786 47.1049 4.75279 46.2711 4.75279C44.9509 4.75279 43.8739 5.05852 43.04 5.66999C42.2201 6.26756 41.8102 7.06664 41.8102 8.06723C41.8102 8.95664 42.1854 9.72792 42.9358 10.3811C43.6862 11.0342 45.5415 11.8333 48.5016 12.7783C51.5311 13.7094 53.7407 14.9532 55.1304 16.5097C56.534 18.0522 57.2358 19.9144 57.2358 22.0963C57.2358 24.8618 56.2214 27.0714 54.1924 28.7252C52.1773 30.365 49.5786 31.1849 46.3962 31.1849Z" fill="#444F61"/>
<path d="M5.07117 16.6211H17.8101V20.0954C17.8101 22.0141 16.2546 23.5696 14.3358 23.5696H8.54542C6.62664 23.5696 5.07117 22.0141 5.07117 20.0954V16.6211Z" fill="#444F61"/>
<path d="M5.07117 9.09357C5.07117 8.13418 5.84891 7.35645 6.80829 7.35645C7.76768 7.35645 8.54542 8.13418 8.54542 9.09357V17.7792H5.07117V9.09357Z" fill="#444F61"/>
<path d="M9.70349 9.09357C9.70349 8.13418 10.4812 7.35645 11.4406 7.35645C12.4 7.35645 13.1777 8.13418 13.1777 9.09357V17.7792H9.70349V9.09357Z" fill="#444F61"/>
<path d="M14.3358 9.09357C14.3358 8.13418 15.1136 7.35645 16.0729 7.35645C17.0323 7.35645 17.8101 8.13418 17.8101 9.09357V17.7792H14.3358V9.09357Z" fill="#444F61"/>
<path d="M21.2843 8.19092C24.6551 8.62593 27.4549 9.93556 29.6827 12.13C32.4621 14.8537 33.8513 18.446 33.8514 22.9067C33.8514 27.4233 32.4621 31.051 29.6827 33.7887C26.9033 36.5124 23.2345 37.8736 18.6764 37.8736H8.54541V18.9371H14.1945V32.7878H18.4265C21.4142 32.8155 23.777 31.961 25.5141 30.224C27.251 28.4869 28.1197 26.0688 28.1198 22.9701C28.1198 19.899 27.251 17.5081 25.5141 15.7988C24.3808 14.6747 22.9706 13.9215 21.2843 13.5369V8.19092Z" fill="#444F61"/>
<path d="M73.8521 39.2914C69.4606 39.2497 65.7779 37.7419 62.804 34.7679C59.83 31.78 58.343 28.0765 58.343 23.6572C58.343 19.1963 59.83 15.4927 62.804 12.5465C65.7918 9.58648 69.4884 8.10645 73.8938 8.10645C75.353 8.10645 76.7288 8.26626 78.0212 8.58589C79.3136 8.89163 80.481 9.32939 81.5232 9.89916C82.5655 10.4689 83.4271 11.0804 84.1081 11.7336C84.789 12.3867 85.1295 12.7133 85.1295 12.7133L81.419 16.5906C81.419 16.5906 81.1619 16.3474 80.6477 15.861C80.1474 15.3607 79.5638 14.9299 78.8967 14.5686C78.2297 14.1933 77.4792 13.9015 76.6454 13.6931C75.8255 13.4846 74.943 13.3804 73.998 13.3804C71.1352 13.3804 68.738 14.3323 66.8063 16.2362C64.8885 18.1401 63.9296 20.6416 63.9296 23.7406C63.9296 26.8118 64.8955 29.3203 66.8271 31.2658C68.7588 33.1975 71.163 34.1634 74.0397 34.1634C76.694 34.1634 78.8342 33.4755 80.4601 32.0997C82.1 30.71 83.038 28.8339 83.2743 26.4714V26.5131H73.727V22.0104H88.6524L88.6733 24.5953C88.6733 29.0284 87.3044 32.5861 84.5667 35.2682C81.829 37.9503 78.2574 39.2914 73.8521 39.2914Z" fill="#444F61"/>
<path d="M90.0558 41.7769C91.0494 45.4853 90.5289 49.4368 88.6093 52.7617C86.6897 56.0865 83.5279 58.5129 79.8196 59.5066C76.1112 60.5003 72.1597 59.9797 68.8348 58.0602C65.51 56.1406 63.0836 52.9788 62.0898 49.2705L90.0558 41.7769ZM76.1893 45.6402L66.6815 48.1882C67.3572 50.7098 69.0066 52.8598 71.2674 54.1652C73.5284 55.4706 76.2156 55.8248 78.7373 55.1491C81.2591 54.4734 83.409 52.823 84.7143 50.562C86.0196 48.3011 86.3739 45.6138 85.6983 43.0921L76.1893 45.6402Z" fill="#444F61"/>
<path d="M76.4958 44.6282C77.4323 44.4201 78.3596 45.0103 78.5677 45.9468L79.7258 51.1582C79.9338 52.0947 79.3436 53.022 78.4071 53.2301C77.4706 53.4381 76.5433 52.8479 76.3352 51.9114L75.1771 46.7C74.9691 45.7635 75.5593 44.8363 76.4958 44.6282Z" fill="#444F61"/>
<path d="M94.6248 39.9483C89.8629 44.1811 82.5506 47.1909 74.2769 49.1564C65.9468 51.1353 56.3903 52.1139 46.907 52.1139C37.4245 52.1139 27.9366 51.1354 19.7451 49.1542C11.6184 47.1885 4.48967 44.1698 0 39.894L3.19378 36.5396C6.81062 39.9842 13.0004 42.7562 20.8331 44.6508C28.6014 46.5297 37.7155 47.4815 46.907 47.4815C56.0975 47.4815 65.2878 46.5298 73.207 44.6485C81.1824 42.7538 87.6227 39.973 91.5464 36.4854L94.6248 39.9483Z" fill="#444F61"/>
<path d="M41.5508 42.849V38.2166C41.5508 37.2572 42.3285 36.4795 43.2879 36.4795C44.2473 36.4795 45.025 37.2572 45.025 38.2166V42.849C45.025 43.8084 44.2473 44.5861 43.2879 44.5861C42.3285 44.5861 41.5508 43.8084 41.5508 42.849Z" fill="#444F61"/>
<path d="M48.4994 42.849V38.2166C48.4994 37.2572 49.2771 36.4795 50.2365 36.4795C51.1959 36.4795 51.9736 37.2572 51.9736 38.2166V42.849C51.9736 43.8084 51.1959 44.5861 50.2365 44.5861C49.2771 44.5861 48.4994 43.8084 48.4994 42.849Z" fill="#444F61"/>
</svg>
